<svg width="219" height="256" viewBox="0 0 219 256" fill="none" xmlns="http://www.w3.org/2000/svg">
<g filter="url(#filter0_di)">
<circle cx="106.359" cy="104.272" r="62.9392" fill="url(#paint0_linear)" fill-opacity="0.2"/>
</g>
<g filter="url(#filter1_b)">
<circle cx="107.514" cy="104.514" r="104.514" fill="white" fill-opacity="0.3"/>
<circle cx="107.514" cy="104.514" r="104.014" stroke="#1E6FEF" stroke-opacity="0.3"/>
</g>
<g filter="url(#filter2_b)">
<circle cx="107.514" cy="104.514" r="87.191" fill="white" fill-opacity="0.3"/>
<circle cx="107.514" cy="104.514" r="86.691" stroke="#1E6FEF" stroke-opacity="0.3"/>
</g>
<path d="M58.548 229.436C58.548 226.988 59.1 224.792 60.204 222.848C61.308 220.88 62.808 219.344 64.704 218.24C66.624 217.136 68.748 216.584 71.076 216.584C73.812 216.584 76.2 217.244 78.24 218.564C80.28 219.884 81.768 221.756 82.704 224.18H78.78C78.084 222.668 77.076 221.504 75.756 220.688C74.46 219.872 72.9 219.464 71.076 219.464C69.324 219.464 67.752 219.872 66.36 220.688C64.968 221.504 63.876 222.668 63.084 224.18C62.292 225.668 61.896 227.42 61.896 229.436C61.896 231.428 62.292 233.18 63.084 234.692C63.876 236.18 64.968 237.332 66.36 238.148C67.752 238.964 69.324 239.372 71.076 239.372C72.9 239.372 74.46 238.976 75.756 238.184C77.076 237.368 78.084 236.204 78.78 234.692H82.704C81.768 237.092 80.28 238.952 78.24 240.272C76.2 241.568 73.812 242.216 71.076 242.216C68.748 242.216 66.624 241.676 64.704 240.596C62.808 239.492 61.308 237.968 60.204 236.024C59.1 234.08 58.548 231.884 58.548 229.436ZM98.9566 242.252C96.6286 242.252 94.5046 241.712 92.5846 240.632C90.6646 239.528 89.1406 238.004 88.0126 236.06C86.9086 234.092 86.3566 231.884 86.3566 229.436C86.3566 226.988 86.9086 224.792 88.0126 222.848C89.1406 220.88 90.6646 219.356 92.5846 218.276C94.5046 217.172 96.6286 216.62 98.9566 216.62C101.309 216.62 103.445 217.172 105.365 218.276C107.285 219.356 108.797 220.868 109.901 222.812C111.005 224.756 111.557 226.964 111.557 229.436C111.557 231.908 111.005 234.116 109.901 236.06C108.797 238.004 107.285 239.528 105.365 240.632C103.445 241.712 101.309 242.252 98.9566 242.252ZM98.9566 239.408C100.709 239.408 102.281 239 103.673 238.184C105.089 237.368 106.193 236.204 106.985 234.692C107.801 233.18 108.209 231.428 108.209 229.436C108.209 227.42 107.801 225.668 106.985 224.18C106.193 222.668 105.101 221.504 103.709 220.688C102.317 219.872 100.733 219.464 98.9566 219.464C97.1806 219.464 95.5966 219.872 94.2046 220.688C92.8126 221.504 91.7086 222.668 90.8926 224.18C90.1006 225.668 89.7046 227.42 89.7046 229.436C89.7046 231.428 90.1006 233.18 90.8926 234.692C91.7086 236.204 92.8126 237.368 94.2046 238.184C95.6206 239 97.2046 239.408 98.9566 239.408ZM123.693 216.908C126.429 216.908 128.793 217.424 130.785 218.456C132.801 219.464 134.337 220.916 135.393 222.812C136.473 224.708 137.013 226.94 137.013 229.508C137.013 232.076 136.473 234.308 135.393 236.204C134.337 238.076 132.801 239.516 130.785 240.524C128.793 241.508 126.429 242 123.693 242H115.881V216.908H123.693ZM123.693 239.3C126.933 239.3 129.405 238.448 131.109 236.744C132.813 235.016 133.665 232.604 133.665 229.508C133.665 226.388 132.801 223.952 131.073 222.2C129.369 220.448 126.909 219.572 123.693 219.572H119.157V239.3H123.693ZM144.611 219.572V227.96H153.755V230.66H144.611V239.3H154.835V242H141.335V216.872H154.835V219.572H144.611Z" fill="#197BF2"/>
<g filter="url(#filter3_di)">
<circle cx="180.597" cy="59.5545" r="6.19792" fill="url(#paint1_linear)"/>
</g>
<g filter="url(#filter4_di)">
<circle cx="199.92" cy="156.898" r="8.75" fill="url(#paint2_linear)"/>
</g>
<g filter="url(#filter5_di)">
<circle cx="43.149" cy="32.2108" r="6.5625" fill="url(#paint3_linear)"/>
</g>
<g filter="url(#filter6_di)">
<circle cx="46.0659" cy="94.1899" r="3.64583" fill="url(#paint4_linear)"/>
</g>
<g filter="url(#filter7_di)">
<circle cx="28.5658" cy="148.148" r="5.83333" fill="url(#paint5_linear)"/>
</g>
<g filter="url(#filter8_di)">
<path d="M58.7413 72.9043C58.7413 66.8292 63.6662 61.9043 69.7413 61.9043H144.89C150.965 61.9043 155.89 66.8292 155.89 72.9043V112.911C155.89 118.986 150.965 123.911 144.89 123.911H69.7413C63.6662 123.911 58.7413 118.986 58.7413 112.911V72.9043Z" fill="url(#paint6_radial)"/>
</g>
<g filter="url(#filter9_bdii)">
<path d="M62.9486 73.6482C62.9486 68.1253 67.4258 63.6482 72.9486 63.6482H142.066C147.588 63.6482 152.066 68.1253 152.066 73.6482V112.356C152.066 117.879 147.588 122.356 142.066 122.356H72.9486C67.4258 122.356 62.9486 117.879 62.9486 112.356V73.6482Z" fill="url(#paint7_radial)" fill-opacity="0.1"/>
<path d="M62.9486 73.6482C62.9486 68.1253 67.4258 63.6482 72.9486 63.6482H142.066C147.588 63.6482 152.066 68.1253 152.066 73.6482V112.356C152.066 117.879 147.588 122.356 142.066 122.356H72.9486C67.4258 122.356 62.9486 117.879 62.9486 112.356V73.6482Z" fill="white" fill-opacity="0.25"/>
</g>
<g filter="url(#filter10_bdii)">
<path d="M92.6603 97.6737L94.579 94.3473L78.8723 87.849L94.579 81.3508L92.6603 78.063L72.8931 86.4178V89.2802L92.6603 97.6737Z" fill="white" fill-opacity="0.33"/>
<path d="M115.658 71.1392H109.947L98.8361 101.813H104.548L115.658 71.1392Z" fill="white" fill-opacity="0.33"/>
<path d="M141.356 89.2802V86.4178L121.589 78.063L119.67 81.3508L135.377 87.849L119.67 94.3473L121.589 97.6737L141.356 89.2802Z" fill="white" fill-opacity="0.33"/>
</g>
<g filter="url(#filter11_di)">
<path d="M55.8401 126.001C57.8979 123.055 61.2645 121.3 64.8577 121.3H150.539C154.132 121.3 157.499 123.055 159.556 126.001L163.311 131.376C168.405 138.668 163.188 148.676 154.294 148.676H61.1027C52.2083 148.676 46.9914 138.668 52.0852 131.376L55.8401 126.001Z" fill="url(#paint8_linear)"/>
</g>
<defs>
<filter id="filter0_di" x="21.4196" y="31.3327" width="157.878" height="157.878" filterUnits="userSpaceOnUse" color-interpolation-filters="sRGB">
<feFlood flood-opacity="0" result="BackgroundImageFix"/>
<feColorMatrix in="SourceAlpha" type="matrix" values="0 0 0 0 0 0 0 0 0 0 0 0 0 0 0 0 0 0 127 0"/>
<feOffset dx="-6" dy="6"/>
<feGaussianBlur stdDeviation="8"/>
<feColorMatrix type="matrix" values="0 0 0 0 0.0941176 0 0 0 0 0.568627 0 0 0 0 0.964706 0 0 0 0.2 0"/>
<feBlend mode="normal" in2="BackgroundImageFix" result="effect1_dropShadow"/>
<feBlend mode="normal" in="SourceGraphic" in2="effect1_dropShadow" result="shape"/>
<feColorMatrix in="SourceAlpha" type="matrix" values="0 0 0 0 0 0 0 0 0 0 0 0 0 0 0 0 0 0 127 0" result="hardAlpha"/>
<feOffset dx="10" dy="-10"/>
<feGaussianBlur stdDeviation="10"/>
<feComposite in2="hardAlpha" operator="arithmetic" k2="-1" k3="1"/>
<feColorMatrix type="matrix" values="0 0 0 0 1 0 0 0 0 1 0 0 0 0 1 0 0 0 0.24 0"/>
<feBlend mode="normal" in2="shape" result="effect2_innerShadow"/>
</filter>
<filter id="filter1_b" x="-51" y="-54.0001" width="317.027" height="317.027" filterUnits="userSpaceOnUse" color-interpolation-filters="sRGB">
<feFlood flood-opacity="0" result="BackgroundImageFix"/>
<feGaussianBlur in="BackgroundImage" stdDeviation="27"/>
<feComposite in2="SourceAlpha" operator="in" result="effect1_backgroundBlur"/>
<feBlend mode="normal" in="SourceGraphic" in2="effect1_backgroundBlur" result="shape"/>
</filter>
<filter id="filter2_b" x="-33.6774" y="-36.6774" width="282.382" height="282.382" filterUnits="userSpaceOnUse" color-interpolation-filters="sRGB">
<feFlood flood-opacity="0" result="BackgroundImageFix"/>
<feGaussianBlur in="BackgroundImage" stdDeviation="27"/>
<feComposite in2="SourceAlpha" operator="in" result="effect1_backgroundBlur"/>
<feBlend mode="normal" in="SourceGraphic" in2="effect1_backgroundBlur" result="shape"/>
</filter>
<filter id="filter3_di" x="152.399" y="43.3566" width="44.3958" height="44.3958" filterUnits="userSpaceOnUse" color-interpolation-filters="sRGB">
<feFlood flood-opacity="0" result="BackgroundImageFix"/>
<feColorMatrix in="SourceAlpha" type="matrix" values="0 0 0 0 0 0 0 0 0 0 0 0 0 0 0 0 0 0 127 0"/>
<feOffset dx="-6" dy="6"/>
<feGaussianBlur stdDeviation="8"/>
<feColorMatrix type="matrix" values="0 0 0 0 0.0941176 0 0 0 0 0.568627 0 0 0 0 0.964706 0 0 0 0.2 0"/>
<feBlend mode="normal" in2="BackgroundImageFix" result="effect1_dropShadow"/>
<feBlend mode="normal" in="SourceGraphic" in2="effect1_dropShadow" result="shape"/>
<feColorMatrix in="SourceAlpha" type="matrix" values="0 0 0 0 0 0 0 0 0 0 0 0 0 0 0 0 0 0 127 0" result="hardAlpha"/>
<feOffset dx="10" dy="-10"/>
<feGaussianBlur stdDeviation="10"/>
<feComposite in2="hardAlpha" operator="arithmetic" k2="-1" k3="1"/>
<feColorMatrix type="matrix" values="0 0 0 0 1 0 0 0 0 1 0 0 0 0 1 0 0 0 0.24 0"/>
<feBlend mode="normal" in2="shape" result="effect2_innerShadow"/>
</filter>
<filter id="filter4_di" x="169.17" y="138.148" width="49.5" height="49.5" filterUnits="userSpaceOnUse" color-interpolation-filters="sRGB">
<feFlood flood-opacity="0" result="BackgroundImageFix"/>
<feColorMatrix in="SourceAlpha" type="matrix" values="0 0 0 0 0 0 0 0 0 0 0 0 0 0 0 0 0 0 127 0"/>
<feOffset dx="-6" dy="6"/>
<feGaussianBlur stdDeviation="8"/>
<feColorMatrix type="matrix" values="0 0 0 0 0.0941176 0 0 0 0 0.568627 0 0 0 0 0.964706 0 0 0 0.2 0"/>
<feBlend mode="normal" in2="BackgroundImageFix" result="effect1_dropShadow"/>
<feBlend mode="normal" in="SourceGraphic" in2="effect1_dropShadow" result="shape"/>
<feColorMatrix in="SourceAlpha" type="matrix" values="0 0 0 0 0 0 0 0 0 0 0 0 0 0 0 0 0 0 127 0" result="hardAlpha"/>
<feOffset dx="10" dy="-10"/>
<feGaussianBlur stdDeviation="10"/>
<feComposite in2="hardAlpha" operator="arithmetic" k2="-1" k3="1"/>
<feColorMatrix type="matrix" values="0 0 0 0 1 0 0 0 0 1 0 0 0 0 1 0 0 0 0.24 0"/>
<feBlend mode="normal" in2="shape" result="effect2_innerShadow"/>
</filter>
<filter id="filter5_di" x="14.5865" y="15.6483" width="45.125" height="45.125" filterUnits="userSpaceOnUse" color-interpolation-filters="sRGB">
<feFlood flood-opacity="0" result="BackgroundImageFix"/>
<feColorMatrix in="SourceAlpha" type="matrix" values="0 0 0 0 0 0 0 0 0 0 0 0 0 0 0 0 0 0 127 0"/>
<feOffset dx="-6" dy="6"/>
<feGaussianBlur stdDeviation="8"/>
<feColorMatrix type="matrix" values="0 0 0 0 0.0941176 0 0 0 0 0.568627 0 0 0 0 0.964706 0 0 0 0.2 0"/>
<feBlend mode="normal" in2="BackgroundImageFix" result="effect1_dropShadow"/>
<feBlend mode="normal" in="SourceGraphic" in2="effect1_dropShadow" result="shape"/>
<feColorMatrix in="SourceAlpha" type="matrix" values="0 0 0 0 0 0 0 0 0 0 0 0 0 0 0 0 0 0 127 0" result="hardAlpha"/>
<feOffset dx="10" dy="-10"/>
<feGaussianBlur stdDeviation="10"/>
<feComposite in2="hardAlpha" operator="arithmetic" k2="-1" k3="1"/>
<feColorMatrix type="matrix" values="0 0 0 0 1 0 0 0 0 1 0 0 0 0 1 0 0 0 0.24 0"/>
<feBlend mode="normal" in2="shape" result="effect2_innerShadow"/>
</filter>
<filter id="filter6_di" x="20.42" y="80.5441" width="39.2917" height="39.2917" filterUnits="userSpaceOnUse" color-interpolation-filters="sRGB">
<feFlood flood-opacity="0" result="BackgroundImageFix"/>
<feColorMatrix in="SourceAlpha" type="matrix" values="0 0 0 0 0 0 0 0 0 0 0 0 0 0 0 0 0 0 127 0"/>
<feOffset dx="-6" dy="6"/>
<feGaussianBlur stdDeviation="8"/>
<feColorMatrix type="matrix" values="0 0 0 0 0.0941176 0 0 0 0 0.568627 0 0 0 0 0.964706 0 0 0 0.2 0"/>
<feBlend mode="normal" in2="BackgroundImageFix" result="effect1_dropShadow"/>
<feBlend mode="normal" in="SourceGraphic" in2="effect1_dropShadow" result="shape"/>
<feColorMatrix in="SourceAlpha" type="matrix" values="0 0 0 0 0 0 0 0 0 0 0 0 0 0 0 0 0 0 127 0" result="hardAlpha"/>
<feOffset dx="10" dy="-10"/>
<feGaussianBlur stdDeviation="10"/>
<feComposite in2="hardAlpha" operator="arithmetic" k2="-1" k3="1"/>
<feColorMatrix type="matrix" values="0 0 0 0 1 0 0 0 0 1 0 0 0 0 1 0 0 0 0.24 0"/>
<feBlend mode="normal" in2="shape" result="effect2_innerShadow"/>
</filter>
<filter id="filter7_di" x="0.732422" y="132.315" width="43.6667" height="43.6667" filterUnits="userSpaceOnUse" color-interpolation-filters="sRGB">
<feFlood flood-opacity="0" result="BackgroundImageFix"/>
<feColorMatrix in="SourceAlpha" type="matrix" values="0 0 0 0 0 0 0 0 0 0 0 0 0 0 0 0 0 0 127 0"/>
<feOffset dx="-6" dy="6"/>
<feGaussianBlur stdDeviation="8"/>
<feColorMatrix type="matrix" values="0 0 0 0 0.0941176 0 0 0 0 0.568627 0 0 0 0 0.964706 0 0 0 0.2 0"/>
<feBlend mode="normal" in2="BackgroundImageFix" result="effect1_dropShadow"/>
<feBlend mode="normal" in="SourceGraphic" in2="effect1_dropShadow" result="shape"/>
<feColorMatrix in="SourceAlpha" type="matrix" values="0 0 0 0 0 0 0 0 0 0 0 0 0 0 0 0 0 0 127 0" result="hardAlpha"/>
<feOffset dx="10" dy="-10"/>
<feGaussianBlur stdDeviation="10"/>
<feComposite in2="hardAlpha" operator="arithmetic" k2="-1" k3="1"/>
<feColorMatrix type="matrix" values="0 0 0 0 1 0 0 0 0 1 0 0 0 0 1 0 0 0 0.24 0"/>
<feBlend mode="normal" in2="shape" result="effect2_innerShadow"/>
</filter>
<filter id="filter8_di" x="36.7413" y="51.9043" width="129.149" height="94.0062" filterUnits="userSpaceOnUse" color-interpolation-filters="sRGB">
<feFlood flood-opacity="0" result="BackgroundImageFix"/>
<feColorMatrix in="SourceAlpha" type="matrix" values="0 0 0 0 0 0 0 0 0 0 0 0 0 0 0 0 0 0 127 0"/>
<feOffset dx="-6" dy="6"/>
<feGaussianBlur stdDeviation="8"/>
<feColorMatrix type="matrix" values="0 0 0 0 0.0941176 0 0 0 0 0.568627 0 0 0 0 0.964706 0 0 0 0.2 0"/>
<feBlend mode="normal" in2="BackgroundImageFix" result="effect1_dropShadow"/>
<feBlend mode="normal" in="SourceGraphic" in2="effect1_dropShadow" result="shape"/>
<feColorMatrix in="SourceAlpha" type="matrix" values="0 0 0 0 0 0 0 0 0 0 0 0 0 0 0 0 0 0 127 0" result="hardAlpha"/>
<feOffset dx="10" dy="-10"/>
<feGaussianBlur stdDeviation="10"/>
<feComposite in2="hardAlpha" operator="arithmetic" k2="-1" k3="1"/>
<feColorMatrix type="matrix" values="0 0 0 0 1 0 0 0 0 1 0 0 0 0 1 0 0 0 0.24 0"/>
<feBlend mode="normal" in2="shape" result="effect2_innerShadow"/>
</filter>
<filter id="filter9_bdii" x="37.9486" y="35.6482" width="157.117" height="126.708" filterUnits="userSpaceOnUse" color-interpolation-filters="sRGB">
<feFlood flood-opacity="0" result="BackgroundImageFix"/>
<feGaussianBlur in="BackgroundImage" stdDeviation="10"/>
<feComposite in2="SourceAlpha" operator="in" result="effect1_backgroundBlur"/>
<feColorMatrix in="SourceAlpha" type="matrix" values="0 0 0 0 0 0 0 0 0 0 0 0 0 0 0 0 0 0 127 0"/>
<feOffset dx="9" dy="6"/>
<feGaussianBlur stdDeviation="17"/>
<feColorMatrix type="matrix" values="0 0 0 0 0 0 0 0 0 0 0 0 0 0 0 0 0 0 0.1 0"/>
<feBlend mode="normal" in2="effect1_backgroundBlur" result="effect2_dropShadow"/>
<feBlend mode="normal" in="SourceGraphic" in2="effect2_dropShadow" result="shape"/>
<feColorMatrix in="SourceAlpha" type="matrix" values="0 0 0 0 0 0 0 0 0 0 0 0 0 0 0 0 0 0 127 0" result="hardAlpha"/>
<feOffset dx="-10" dy="10"/>
<feGaussianBlur stdDeviation="5"/>
<feComposite in2="hardAlpha" operator="arithmetic" k2="-1" k3="1"/>
<feColorMatrix type="matrix" values="0 0 0 0 1 0 0 0 0 1 0 0 0 0 1 0 0 0 0.15 0"/>
<feBlend mode="normal" in2="shape" result="effect3_innerShadow"/>
<feColorMatrix in="SourceAlpha" type="matrix" values="0 0 0 0 0 0 0 0 0 0 0 0 0 0 0 0 0 0 127 0" result="hardAlpha"/>
<feOffset dy="-10"/>
<feGaussianBlur stdDeviation="5"/>
<feComposite in2="hardAlpha" operator="arithmetic" k2="-1" k3="1"/>
<feColorMatrix type="matrix" values="0 0 0 0 0.101961 0 0 0 0 0.219608 0 0 0 0 0.890196 0 0 0 0.15 0"/>
<feBlend mode="normal" in2="effect3_innerShadow" result="effect4_innerShadow"/>
</filter>
<filter id="filter10_bdii" x="52.8931" y="51.1392" width="108.463" height="71.6733" filterUnits="userSpaceOnUse" color-interpolation-filters="sRGB">
<feFlood flood-opacity="0" result="BackgroundImageFix"/>
<feGaussianBlur in="BackgroundImage" stdDeviation="10"/>
<feComposite in2="SourceAlpha" operator="in" result="effect1_backgroundBlur"/>
<feColorMatrix in="SourceAlpha" type="matrix" values="0 0 0 0 0 0 0 0 0 0 0 0 0 0 0 0 0 0 127 0"/>
<feOffset dy="7"/>
<feGaussianBlur stdDeviation="7"/>
<feColorMatrix type="matrix" values="0 0 0 0 0 0 0 0 0 0 0 0 0 0 0 0 0 0 0.1 0"/>
<feBlend mode="normal" in2="effect1_backgroundBlur" result="effect2_dropShadow"/>
<feBlend mode="normal" in="SourceGraphic" in2="effect2_dropShadow" result="shape"/>
<feColorMatrix in="SourceAlpha" type="matrix" values="0 0 0 0 0 0 0 0 0 0 0 0 0 0 0 0 0 0 127 0" result="hardAlpha"/>
<feOffset dx="-10" dy="10"/>
<feGaussianBlur stdDeviation="5"/>
<feComposite in2="hardAlpha" operator="arithmetic" k2="-1" k3="1"/>
<feColorMatrix type="matrix" values="0 0 0 0 1 0 0 0 0 1 0 0 0 0 1 0 0 0 0.15 0"/>
<feBlend mode="normal" in2="shape" result="effect3_innerShadow"/>
<feColorMatrix in="SourceAlpha" type="matrix" values="0 0 0 0 0 0 0 0 0 0 0 0 0 0 0 0 0 0 127 0" result="hardAlpha"/>
<feOffset dy="-10"/>
<feGaussianBlur stdDeviation="5"/>
<feComposite in2="hardAlpha" operator="arithmetic" k2="-1" k3="1"/>
<feColorMatrix type="matrix" values="0 0 0 0 0.101961 0 0 0 0 0.219608 0 0 0 0 0.890196 0 0 0 0.15 0"/>
<feBlend mode="normal" in2="effect3_innerShadow" result="effect4_innerShadow"/>
</filter>
<filter id="filter11_di" x="28.0836" y="111.3" width="147.229" height="59.3751" filterUnits="userSpaceOnUse" color-interpolation-filters="sRGB">
<feFlood flood-opacity="0" result="BackgroundImageFix"/>
<feColorMatrix in="SourceAlpha" type="matrix" values="0 0 0 0 0 0 0 0 0 0 0 0 0 0 0 0 0 0 127 0"/>
<feOffset dx="-6" dy="6"/>
<feGaussianBlur stdDeviation="8"/>
<feColorMatrix type="matrix" values="0 0 0 0 0.0941176 0 0 0 0 0.568627 0 0 0 0 0.964706 0 0 0 0.2 0"/>
<feBlend mode="normal" in2="BackgroundImageFix" result="effect1_dropShadow"/>
<feBlend mode="normal" in="SourceGraphic" in2="effect1_dropShadow" result="shape"/>
<feColorMatrix in="SourceAlpha" type="matrix" values="0 0 0 0 0 0 0 0 0 0 0 0 0 0 0 0 0 0 127 0" result="hardAlpha"/>
<feOffset dx="10" dy="-10"/>
<feGaussianBlur stdDeviation="10"/>
<feComposite in2="hardAlpha" operator="arithmetic" k2="-1" k3="1"/>
<feColorMatrix type="matrix" values="0 0 0 0 1 0 0 0 0 1 0 0 0 0 1 0 0 0 0.24 0"/>
<feBlend mode="normal" in2="shape" result="effect2_innerShadow"/>
</filter>
<linearGradient id="paint0_linear" x1="104.936" y1="48.1575" x2="130.341" y2="229.83" gradientUnits="userSpaceOnUse">
<stop stop-color="#1891F6"/>
<stop offset="1" stop-color="#1A38E3"/>
</linearGradient>
<linearGradient id="paint1_linear" x1="180.457" y1="54.0287" x2="182.959" y2="71.9188" gradientUnits="userSpaceOnUse">
<stop stop-color="#1891F6"/>
<stop offset="1" stop-color="#1A38E3"/>
</linearGradient>
<linearGradient id="paint2_linear" x1="199.722" y1="149.097" x2="203.254" y2="174.354" gradientUnits="userSpaceOnUse">
<stop stop-color="#1891F6"/>
<stop offset="1" stop-color="#1A38E3"/>
</linearGradient>
<linearGradient id="paint3_linear" x1="43.0007" y1="26.3599" x2="45.6496" y2="45.3023" gradientUnits="userSpaceOnUse">
<stop stop-color="#1891F6"/>
<stop offset="1" stop-color="#1A38E3"/>
</linearGradient>
<linearGradient id="paint4_linear" x1="45.9835" y1="90.9394" x2="47.4551" y2="101.463" gradientUnits="userSpaceOnUse">
<stop stop-color="#1891F6"/>
<stop offset="1" stop-color="#1A38E3"/>
</linearGradient>
<linearGradient id="paint5_linear" x1="28.4339" y1="142.947" x2="30.7885" y2="159.785" gradientUnits="userSpaceOnUse">
<stop stop-color="#1891F6"/>
<stop offset="1" stop-color="#1A38E3"/>
</linearGradient>
<radialGradient id="paint6_radial" cx="0" cy="0" r="1" gradientUnits="userSpaceOnUse" gradientTransform="translate(128.543 76.9111) rotate(152.536) scale(141.601 115.932)">
<stop stop-color="#1891F6"/>
<stop offset="1" stop-color="#1A38E3"/>
</radialGradient>
<radialGradient id="paint7_radial" cx="0" cy="0" r="1" gradientUnits="userSpaceOnUse" gradientTransform="translate(152.243 66.9344) rotate(146.429) scale(79.921 73.647)">
<stop offset="0.526042" stop-color="#B0DBFF"/>
<stop offset="1" stop-color="#9CAAFA"/>
</radialGradient>
<linearGradient id="paint8_linear" x1="106.168" y1="122.785" x2="107.306" y2="163.034" gradientUnits="userSpaceOnUse">
<stop stop-color="#1891F6"/>
<stop offset="1" stop-color="#1A38E3"/>
</linearGradient>
</defs>
</svg>
