<svg width="513" height="302" viewBox="0 0 513 302" fill="none" xmlns="http://www.w3.org/2000/svg">
<g filter="url(#filter0_d)">
<rect x="67.7157" y="18.4199" width="378.222" height="237.003" rx="8" fill="white" fill-opacity="0.6"/>
<path d="M455.671 266.065C455.671 271.893 450.946 276.617 445.119 276.617H68.9438C63.116 276.617 58.3918 271.893 58.3918 266.065V12.6892C58.3918 6.86134 63.116 2.13721 68.9438 2.13721H445.119C450.946 2.13721 455.671 6.86136 455.671 12.6892V266.065ZM67.2158 247.423C67.2158 252.117 71.0214 255.923 75.7158 255.923H437.938C442.632 255.923 446.438 252.117 446.438 247.423V26.4198C446.438 21.7254 442.632 17.9198 437.938 17.9198H75.7158C71.0214 17.9198 67.2158 21.7254 67.2158 26.4198V247.423Z" fill="#F2F2F2" stroke="#E0E0E0"/>
<path d="M57.3918 12.6892C57.3918 6.31894 62.5735 1.1373 68.9438 1.1373H445.119C451.49 1.1373 456.671 6.31897 456.671 12.6892V266.065C456.671 272.436 451.49 277.617 445.119 277.617H68.9438C62.5735 277.617 57.3918 272.436 57.3918 266.065V12.6892ZM68.9438 278.255H445.119C451.839 278.255 457.309 272.786 457.309 266.065V12.6892C457.309 5.96872 451.839 0.499969 445.119 0.499969H68.9438C62.2232 0.499969 56.7545 5.96869 56.7545 12.6892V266.065C56.7545 272.786 62.2232 278.255 68.9438 278.255Z" fill="white" stroke="#E0E0E0"/>
<path d="M504.472 279.313H14.2957C11.9233 279.313 10 277.39 10 275.018C10 272.645 11.9233 270.722 14.2957 270.722H496.472C500.891 270.722 504.472 274.304 504.472 278.722V279.313Z" fill="url(#paint0_linear)"/>
<g filter="url(#filter1_f)">
<path d="M474.957 284.588H38.6771L10 287.044H504.575L474.957 284.588Z" fill="url(#paint1_linear)"/>
</g>
<g filter="url(#filter2_i)">
<path d="M475.141 285.095C474.955 285.132 474.766 285.15 474.576 285.15H38.9652C38.7696 285.15 38.5746 285.131 38.383 285.092C34.9347 284.39 35.4462 279.313 38.9652 279.313H474.576C478.106 279.313 478.604 284.413 475.141 285.095Z" fill="#E0E0E0"/>
</g>
<g filter="url(#filter3_ii)">
<path d="M223.664 277.117H290.961C291.879 277.117 292.755 276.935 293.554 276.604C297.636 274.914 294.165 270.33 289.747 270.33H224.878C220.459 270.33 216.988 274.914 221.07 276.604C221.869 276.935 222.745 277.117 223.664 277.117Z" fill="url(#paint2_linear)"/>
</g>
</g>
<defs>
<filter id="filter0_d" x="0" y="0" width="504.575" height="301.044" filterUnits="userSpaceOnUse" color-interpolation-filters="sRGB">
<feFlood flood-opacity="0" result="BackgroundImageFix"/>
<feColorMatrix in="SourceAlpha" type="matrix" values="0 0 0 0 0 0 0 0 0 0 0 0 0 0 0 0 0 0 127 0"/>
<feOffset dx="-6" dy="10"/>
<feGaussianBlur stdDeviation="2"/>
<feColorMatrix type="matrix" values="0 0 0 0 0 0 0 0 0 0 0 0 0 0 0 0 0 0 0.25 0"/>
<feBlend mode="normal" in2="BackgroundImageFix" result="effect1_dropShadow"/>
<feBlend mode="normal" in="SourceGraphic" in2="effect1_dropShadow" result="shape"/>
</filter>
<filter id="filter1_f" x="2" y="276.588" width="510.575" height="18.456" filterUnits="userSpaceOnUse" color-interpolation-filters="sRGB">
<feFlood flood-opacity="0" result="BackgroundImageFix"/>
<feBlend mode="normal" in="SourceGraphic" in2="BackgroundImageFix" result="shape"/>
<feGaussianBlur stdDeviation="4" result="effect1_foregroundBlur"/>
</filter>
<filter id="filter2_i" x="36.0453" y="275.313" width="441.451" height="9.83715" filterUnits="userSpaceOnUse" color-interpolation-filters="sRGB">
<feFlood flood-opacity="0" result="BackgroundImageFix"/>
<feBlend mode="normal" in="SourceGraphic" in2="BackgroundImageFix" result="shape"/>
<feColorMatrix in="SourceAlpha" type="matrix" values="0 0 0 0 0 0 0 0 0 0 0 0 0 0 0 0 0 0 127 0" result="hardAlpha"/>
<feOffset dy="-4"/>
<feGaussianBlur stdDeviation="4"/>
<feComposite in2="hardAlpha" operator="arithmetic" k2="-1" k3="1"/>
<feColorMatrix type="matrix" values="0 0 0 0 0.768627 0 0 0 0 0.768627 0 0 0 0 0.768627 0 0 0 1 0"/>
<feBlend mode="normal" in2="shape" result="effect1_innerShadow"/>
</filter>
<filter id="filter3_ii" x="219.255" y="268.33" width="76.1154" height="10.7868" filterUnits="userSpaceOnUse" color-interpolation-filters="sRGB">
<feFlood flood-opacity="0" result="BackgroundImageFix"/>
<feBlend mode="normal" in="SourceGraphic" in2="BackgroundImageFix" result="shape"/>
<feColorMatrix in="SourceAlpha" type="matrix" values="0 0 0 0 0 0 0 0 0 0 0 0 0 0 0 0 0 0 127 0" result="hardAlpha"/>
<feOffset dy="2"/>
<feGaussianBlur stdDeviation="1"/>
<feComposite in2="hardAlpha" operator="arithmetic" k2="-1" k3="1"/>
<feColorMatrix type="matrix" values="0 0 0 0 0.95 0 0 0 0 0.95 0 0 0 0 0.95 0 0 0 1 0"/>
<feBlend mode="normal" in2="shape" result="effect1_innerShadow"/>
<feColorMatrix in="SourceAlpha" type="matrix" values="0 0 0 0 0 0 0 0 0 0 0 0 0 0 0 0 0 0 127 0" result="hardAlpha"/>
<feOffset dy="-2"/>
<feGaussianBlur stdDeviation="4"/>
<feComposite in2="hardAlpha" operator="arithmetic" k2="-1" k3="1"/>
<feColorMatrix type="matrix" values="0 0 0 0 0.88 0 0 0 0 0.88 0 0 0 0 0.88 0 0 0 1 0"/>
<feBlend mode="normal" in2="effect1_innerShadow" result="effect2_innerShadow"/>
</filter>
<linearGradient id="paint0_linear" x1="10.0004" y1="275.018" x2="504.473" y2="275.018" gradientUnits="userSpaceOnUse">
<stop stop-color="#E0E0E0"/>
<stop offset="0.0107527" stop-color="#F2F2F2"/>
<stop offset="0.268817" stop-color="white"/>
<stop offset="0.817204" stop-color="white"/>
<stop offset="0.989247" stop-color="#F2F2F2"/>
<stop offset="1" stop-color="#E0E0E0"/>
</linearGradient>
<linearGradient id="paint1_linear" x1="10" y1="287.043" x2="504.575" y2="287.043" gradientUnits="userSpaceOnUse">
<stop stop-color="#9E9E9E"/>
<stop offset="0.09375"/>
<stop offset="0.907647"/>
<stop offset="1" stop-color="#9E9E9E"/>
</linearGradient>
<linearGradient id="paint2_linear" x1="214.971" y1="277.535" x2="300.288" y2="277.535" gradientUnits="userSpaceOnUse">
<stop stop-color="#F2F2F2"/>
<stop offset="0.13176" stop-color="white"/>
<stop offset="0.868285" stop-color="white"/>
<stop offset="1" stop-color="#F2F2F2"/>
</linearGradient>
</defs>
</svg>
